<?xml version="1.0" encoding="UTF-8"?>
<svg id="Layer_1" data-name="Layer 1" xmlns="http://www.w3.org/2000/svg" viewBox="0 0 90.71 113.39">
  <defs>
    <style>
      .cls-1 {
        fill: #96a8a7;
      }

      .cls-2 {
        fill: #fff;
      }

      .cls-3 {
        fill: #003a56;
      }
    </style>
  </defs>
  <path class="cls-3" d="M.07,11C19.51,17.98,30.38,14.27,43.47,.86c13.27,13.13,28.77,16.3,45.95,10.3l.15,58.83C89.57,127.66,.61,126.93,.06,70.44V11Z"/>
  <path class="cls-2" d="M4.75,16.5c15.01,4.39,27.16,3,38.85-8.98,11.88,11.74,27.29,13.48,41.15,8.98l.04,52.97c0,52.03-79.56,50.71-80.02,.28l-.02-53.25Z"/>
  <path class="cls-1" d="M4.75,16.5l38.65,59.02L84.75,16.5l.04,52.97c0,52.2-80.02,51.87-80.02,.28l-.02-53.25Z"/>
  <polygon class="cls-2" points="80.54 83.1 78.46 82.59 74.62 83.15 74.9 81.85 77.44 81.67 75.36 80.19 75.64 78.94 78.79 81.39 80.87 81.9 80.54 83.1"/>
  <polygon class="cls-2" points="78.55 88 74.26 85.92 73.65 87.08 72.82 86.66 74.49 83.15 75.36 83.61 74.76 84.77 79.11 86.89 78.55 88"/>
  <polygon class="cls-2" points="76.66 91.24 71.76 88.19 72.36 87.22 77.26 90.27 76.66 91.24"/>
  <path class="cls-2" d="M72.08,94.24l.79-.97,.14,.14c.23,.14,.46,.23,.55,.23,.19,.05,.32-.05,.46-.23,.09-.14,.19-.32,.14-.46,0-.18-.09-.32-.23-.42-.18-.14-.6-.14-1.2,.05l-.09,.05c-.28,.09-.55,.18-.69,.23-.18,.05-.37,.09-.46,.09-.28,.05-.51,.05-.65,.05-.23-.09-.42-.23-.6-.37-.37-.23-.6-.65-.6-1.06-.05-.46,.09-.88,.42-1.34,.42-.42,.79-.69,1.16-.79,.37,0,.83,.09,1.2,.42l.14,.09-.74,.92h0c-.23-.14-.42-.28-.6-.28-.14,0-.32,.09-.46,.23-.09,.14-.14,.28-.09,.42,0,.14,.09,.32,.23,.42,.23,.18,.74,.14,1.43-.14,.18-.05,.37-.14,.42-.14,.42-.14,.83-.23,1.06-.18,.23,0,.55,.09,.74,.28,.46,.32,.69,.74,.74,1.16,0,.42-.18,.92-.6,1.43-.37,.46-.74,.74-1.16,.79-.37,.09-.79-.09-1.2-.42,0,0-.09-.05-.09-.09s-.09-.05-.14-.09Z"/>
  <path class="cls-2" d="M72.04,95.82c-.09-.14-.28-.28-.46-.51l-.09-.09s-.09-.09-.09-.09c-.32-.37-.6-.6-.83-.65-.14-.05-.42,0-.74,.18,.18-.23,.23-.51,.23-.74-.05-.28-.23-.55-.51-.92-.37-.37-.74-.6-1.11-.6-.28,0-.74,.23-1.25,.65l-1.29,1.16,3.79,4.35,.88-.79-1.53-1.8,.37-.28c.14-.14,.37-.23,.51-.23,.14,.05,.37,.14,.55,.37,0,.05,.14,.18,.28,.32,.32,.42,.65,.69,.79,.83l.97-.83c-.14-.09-.32-.19-.46-.32Zm-3.37-.74l-.23,.19-1.02-1.16,.23-.18c.23-.23,.46-.32,.65-.37,.14,.05,.32,.19,.51,.37,.19,.23,.28,.42,.23,.6,0,.14-.14,.37-.37,.55Z"/>
  <polygon class="cls-2" points="65.89 100.95 62.88 96.05 65.52 94.43 65.98 95.17 64.41 96.14 65.1 97.34 66.58 96.46 67.04 97.2 65.56 98.08 66.44 99.56 68.15 98.54 68.57 99.33 65.89 100.95"/>
  <path class="cls-2" d="M62.24,102.75l-3.84-4.58,1.11-.55,1.85,2.5c.32,.37,.6,.65,.69,.88,.19,.28,.37,.46,.46,.65-.19-.32-.28-.65-.37-.97-.09-.28-.14-.6-.19-.88l-.74-3,1.11-.51,1.2,5.87-1.29,.6Z"/>
  <polygon class="cls-2" points="58.68 104 56.92 98.54 58.03 98.17 59.83 103.67 58.68 104"/>
  <path class="cls-2" d="M52.99,105.52l-1.34-5.64,1.62-.37,1.71,2.73c.23,.28,.42,.6,.56,.92,.18,.28,.37,.6,.51,.88-.05-.23-.19-.51-.23-.74-.09-.28-.18-.55-.23-.88l-.83-3.24,1.11-.23,1.25,5.59-1.53,.37-1.8-2.82c-.14-.19-.32-.46-.46-.74-.19-.32-.37-.65-.55-1.02,.05,.32,.18,.65,.23,.92,.05,.23,.19,.51,.19,.65l.88,3.33-1.06,.28Z"/>
  <path class="cls-2" d="M50.91,99.98l.28,3.61c.09,.83-.05,1.39-.28,1.76-.32,.37-.79,.6-1.48,.65-.69,.05-1.2-.05-1.53-.37-.28-.32-.51-.83-.55-1.53l-.32-3.79,1.11-.09,.32,3.47c.05,.65,.14,1.11,.28,1.2,.14,.18,.37,.23,.65,.23,.23-.05,.46-.14,.55-.32,.05-.23,.09-.6,.05-1.25l-.28-3.47,1.2-.09Z"/>
  <path class="cls-2" d="M34.32,105.24l.6-5.78,1.8,.23,.42,3.61c.05,.09,.09,.28,.09,.46-.05,.18,0,.46,0,.74,0-.18,.09-.37,.09-.6,.05-.18,.14-.42,.14-.6l1.16-3.42,1.9,.18-.6,5.73-1.11-.09,.46-3.93c0-.28,.05-.56,.09-.79,0-.23,.09-.42,.14-.6l-1.8,5.18-1.11-.09-.69-5.5c-.05,.32-.05,.83-.09,1.43l.05,.05-.37,3.88-1.16-.09Z"/>
  <path class="cls-2" d="M32.7,98.41l-3.75,4.64,1.14,.51,.74-1.1,1.48,.66-.16,1.29,1.18,.52,.77-5.92-1.4-.6Zm-.13,3.59l-1.1-.46,1.5-2.05-.41,2.51Z"/>
  <path class="cls-2" d="M24.69,100.7l2.94-4.98,1.37,.81-.61,3.13c-.05,.37-.11,.73-.21,1.09-.09,.31-.15,.68-.24,.99,.08-.22,.21-.48,.34-.7,.13-.26,.27-.52,.4-.83l1.65-2.89,.94,.56-2.9,4.99-1.37-.86,.58-3.28c.08-.22,.13-.54,.18-.86,.09-.31,.16-.72,.31-1.12-.19,.3-.32,.61-.46,.87-.13,.21-.26,.48-.28,.61l-1.67,3.02-.99-.57Z"/>
  <path class="cls-2" d="M25.44,97.96l-1.76,2.36c-.4-.18-.71-.31-.88-.47-.21-.16-.43-.28-.65-.4-.26-.22-.51-.43-.63-.58-.16-.2-.33-.41-.3-.59-.1-.34-.05-.75,.11-1.01,.18-.35,.48-.92,.97-1.61,.33-.47,.65-.81,.87-1.06,.26-.2,.51-.36,.7-.43,.25-.11,.57-.12,.84-.04,.27,.08,.58,.21,.88,.47,.52,.34,.8,.74,.84,1.17,.08,.47-.06,.92-.39,1.4l-.05,.04-.99-.72,.05-.04c.21-.25,.34-.52,.31-.71,.02-.18-.1-.38-.26-.54-.21-.16-.49-.2-.75,0-.2,.16-.63,.63-1.13,1.31-.6,.77-.89,1.29-.96,1.52-.03,.28,.13,.53,.43,.75,.09,.06,.13,.11,.22,.12,.04,.1,.22,.12,.31,.17l.77-1.03-.51-.38,.55-.73,1.42,1.05Z"/>
  <path class="cls-2" d="M16.38,94.28l4.19-3.97,1.14,1.18-1.48,2.88c-.12,.31-.29,.62-.51,.93-.17,.31-.34,.62-.51,.93,.16-.22,.32-.43,.52-.6,.21-.21,.42-.47,.62-.68l2.4-2.32,.76,.81-4.19,3.97-1.1-1.17,1.5-3.02c.11-.18,.23-.49,.4-.75,.17-.31,.34-.66,.6-.96-.26,.25-.46,.47-.67,.68-.2,.17-.36,.38-.51,.51l-2.41,2.42-.76-.81Z"/>
  <path class="cls-2" d="M19.99,89.82l-2.87,2.22c-.65,.51-1.2,.74-1.66,.69-.42,0-.88-.32-1.29-.88-.42-.51-.6-1.02-.51-1.48,.09-.42,.37-.92,.92-1.29l3-2.36,.74,.97-2.77,2.13c-.51,.37-.79,.69-.88,.88-.05,.18,0,.42,.18,.65,.18,.23,.42,.32,.55,.32,.28-.05,.65-.28,1.11-.65l2.73-2.13,.74,.92Z"/>
  <polygon class="cls-2" points="10.87 86.62 12.82 85.7 15.4 82.78 15.96 83.94 14.2 85.74 16.74 85.47 17.3 86.67 13.32 86.76 11.43 87.73 10.87 86.62"/>
  <polygon class="cls-2" points="8.81 80.13 14.41 78.74 14.68 79.85 12.23 80.5 15.05 81.33 15.33 82.58 12.33 81.61 9.74 83.97 9.41 82.58 11.77 80.64 9.09 81.28 8.81 80.13"/>
  <polygon class="cls-3" points="33.16 21.99 54.65 21.99 54.65 29.25 58.26 29.25 58.26 33.5 54.75 33.5 54.75 38.45 58.4 38.45 58.4 42.61 54.84 42.61 54.84 49.54 50.22 49.54 50.22 26.66 33.16 26.66 33.16 21.99"/>
  <polygon class="cls-3" points="38.01 29.25 38.01 52.41 54.98 52.41 54.98 57.35 33.3 57.35 33.3 29.25 38.01 29.25"/>
  <path class="cls-3" d="M56.97,62.21l2.91-3.14c4.35,3.98,7.07,9.57,7.07,15.81,0,12.02-10.22,21.82-22.65,21.82s-22.7-9.8-22.7-21.82c0-6.01,2.54-11.51,6.66-15.39l3,3.1c-3.19,3.24-5.22,7.53-5.22,12.3,0,9.62,8.18,17.52,18.26,17.52s18.17-7.9,18.17-17.52c0-4.9-2.08-9.43-5.5-12.67Z"/>
</svg>